PathFileType	4	(X/Y/Z)	14_coords_data.trc
DataRate	CameraRate	NumFrames	NumMarkers	Units	OrigDataRate	OrigDataStartFrame	OrigNumFrames
30.0	30.0	8	21	m	30.0	49	68
Frame#	Time	THUMB_TIP	THUMB_IP	THUMB_MCP	THUMB_CMC	INDEX_TIP	INDEX_DIP	INDEX_PIP	INDEX_MCP	MIDDLE_TIP	MIDDLE_DIP	MIDDLE_PIP	MIDDLE_MCP	RING_TIP	RING_DIP	RING_PIP	RING_MCP	PINKY_TIP	PINKY_DIP	PINKY_PIP	PINKY_MCP	WRIST
X1	Y1	Z1	X2	Y2	Z2	X3	Y3	Z3	X4	Y4	Z4	X5	Y5	Z5	X6	Y6	Z6	X7	Y7	Z7	X8	Y8	Z8	X9	Y9	Z9	X10	Y10	Z10	X11	Y11	Z11	X12	Y12	Z12	X13	Y13	Z13	X14	Y14	Z14	X15	Y15	Z15	X16	Y16	Z16	X17	Y17	Z17	X18	Y18	Z18	X19	Y19	Z19	X20	Y20	Z20	X21	Y21	Z21
48	1.6	-0.01173009967803955	-0.055270000457763674	0.9447899780273438	-0.012568499565124512	-0.034781501770019534	0.96127099609375	-0.022271499633789063	-0.019927799224853517	0.9843599853515625	-0.026189199447631838	0.009973509788513184	1.000739990234375	0.004653029918670655	-0.013831700325012207	0.8677379760742188	-0.005472839832305908	-0.01192549991607666	0.8876729736328125	-0.014782999992370606	-0.009159930229187012	0.9082899780273438	-0.02442300033569336	-0.002222369909286499	0.9425880126953124	0.010519000053405761	0.024564199447631836	0.8535850219726563	-0.00011125999689102101	0.02321470069885254	0.8753109741210937	-0.012597200393676757	0.021730600357055666	0.900885986328125	-0.02512529945373535	0.02098340034484863	0.9376229858398437	0.024026599884033203	0.04241030120849609	0.8725650024414062	0.009965319633483887	0.043109401702880856	0.890156005859375	-0.005024779796600342	0.043183998107910154	0.9108809814453125	-0.019088699340820314	0.04061000061035156	0.9418790283203125	0.034406898498535156	0.07554669952392579	0.9163170166015625	0.019098899841308595	0.07138990020751954	0.9264869995117188	0.005300889968872071	0.06654119873046875	0.9360889892578125	-0.01255430030822754	0.05732360076904297	0.9522150268554688	-0.04811750030517578	0.03638880157470703	1.011969970703125
49	1.6333333333333333	-0.015820099830627442	-0.05631669998168945	0.9449240112304688	-0.015251299858093263	-0.0354901008605957	0.9612579956054688	-0.023855199813842775	-0.020124799728393556	0.9844910278320312	-0.026758399963378907	0.009976189613342285	1.0006799926757812	0.004022850036621094	-0.013691699981689454	0.8674099731445313	-0.00617018985748291	-0.011709500312805175	0.8874039916992188	-0.015455499649047851	-0.008981450080871582	0.9079500122070312	-0.02513529968261719	-0.002042309999465942	0.9423350219726563	0.012015999794006348	0.02485449981689453	0.8542470092773438	0.00047319900989532403	0.02368000030517578	0.8753980102539063	-0.012852899551391602	0.022203800201416015	0.900625	-0.025339599609375	0.021283000946044923	0.9373770141601563	0.025457599639892577	0.042634201049804685	0.8735360107421875	0.010722800254821778	0.04357949829101562	0.8904829711914063	-0.004935579776763916	0.04369720077514649	0.9107310180664062	-0.01891889953613281	0.04075199890136719	0.9415640258789062	0.036812599182128904	0.07454609680175782	0.9186160278320312	0.021210100173950194	0.07077020263671875	0.9280859985351563	0.006908480167388916	0.06619699859619141	0.9371110229492188	-0.01207390022277832	0.05722560119628906	0.952364013671875	-0.048548000335693356	0.03677830123901367	1.0122899780273438
50	1.6666666666666667	-0.018824100494384766	-0.057099998474121096	0.9454819946289063	-0.01717799949645996	-0.03613880157470703	0.961448974609375	-0.024997299194335937	-0.020263099670410158	0.98439501953125	-0.02712770080566406	0.009993399620056152	1.0005	0.002023550033569336	-0.014680800437927246	0.8668699951171875	-0.0076552400588989255	-0.012444499969482423	0.8871389770507813	-0.01644219970703125	-0.009422860145568847	0.9079439697265625	-0.025702199935913085	-0.002039200067520141	0.9423170166015625	0.012591699600219726	0.024406700134277343	0.854614990234375	0.00060698401927948	0.023459699630737303	0.875552001953125	-0.013163399696350098	0.022173099517822266	0.9005789794921875	-0.02571769905090332	0.021390499114990233	0.9372369995117188	0.02707659912109375	0.04206829833984375	0.8747379760742188	0.011857999801635741	0.0432932014465332	0.89110302734375	-0.004411159992218017	0.04369509887695312	0.91089697265625	-0.018843000411987304	0.04073619842529297	0.9413790283203125	0.03932569885253906	0.07287439727783203	0.9211010131835937	0.023174299240112304	0.06950779724121094	0.9300659790039062	0.00838306999206543	0.06539649963378906	0.9384110107421875	-0.011626899719238281	0.05701330184936523	0.9525260009765625	-0.048674301147460936	0.037102901458740234	1.0120900268554687
51	1.7	-0.01998819923400879	-0.05733300018310547	0.9457059936523438	-0.018002599716186524	-0.03630720138549805	0.9616690063476563	-0.025527799606323242	-0.020292600631713866	0.984448974609375	-0.027441600799560546	0.010034600257873534	1.0005399780273438	0.00224313998222351	-0.01456149959564209	0.8669520263671875	-0.007364930152893067	-0.012417799949645996	0.8871300048828125	-0.016275499343872072	-0.009378210067749023	0.9080239868164063	-0.025996099472045897	-0.002043849945068359	0.9423369750976562	0.01340489959716797	0.02438909912109375	0.8550999755859375	0.0009678050279617311	0.023507999420166015	0.875802001953125	-0.01319950008392334	0.02224329948425293	0.90060400390625	-0.026042600631713868	0.021404600143432616	0.9371300048828125	0.02757430076599121	0.04192580032348633	0.8753250122070313	0.01208240032196045	0.043297100067138675	0.8913770141601562	-0.0045344200134277346	0.043787399291992185	0.9109169921875	-0.019212200164794923	0.040760101318359374	0.941114013671875	0.039528099060058594	0.07255970001220703	0.9217849731445312	0.02328890037536621	0.06933519744873047	0.93047900390625	0.008331669807434081	0.06529679870605469	0.938656005859375	-0.011973299980163575	0.057056098937988284	0.9525269775390625	-0.04884560012817383	0.0371775016784668	1.0120999755859375
52	1.7333333333333334	-0.020283199310302733	-0.057347999572753904	0.9459390258789062	-0.018231199264526366	-0.03627510070800781	0.961802978515625	-0.02571470069885254	-0.020233400344848634	0.9844429931640625	-0.027806400299072265	0.010180700302124023	1.0005399780273438	0.002716989994049072	-0.014347599983215333	0.8672780151367188	-0.007076330184936523	-0.012251799583435058	0.8873090209960938	-0.016289199829101562	-0.009256549835205078	0.9080700073242187	-0.02634539985656738	-0.001958629965782165	0.9423920288085937	0.013770700454711914	0.02422260093688965	0.8554340209960938	0.001046180009841919	0.02349869918823242	0.8759530029296875	-0.013377699851989746	0.022329799652099608	0.9005540161132812	-0.02636829948425293	0.02145359992980957	0.9370599975585937	0.027653900146484375	0.041766300201416015	0.8756649780273438	0.011964300155639648	0.043218101501464844	0.8914130249023438	-0.0048228402137756345	0.04381100082397461	0.9108179931640625	-0.019570899963378907	0.04089759826660156	0.9411259765625	0.03919129943847656	0.07252020263671875	0.9213660278320313	0.02290880012512207	0.06932479858398438	0.9301370239257812	0.007930349826812745	0.06535310363769531	0.9383209838867187	-0.01232450008392334	0.05718939971923828	0.9523569946289062	-0.049017200469970705	0.03732180023193359	1.0120399780273437
53	1.7666666666666666	-0.01943869972229004	-0.05725270080566406	0.9462410278320312	-0.01787980079650879	-0.036057998657226566	0.9620679931640626	-0.0257406005859375	-0.01998360061645508	0.9846329956054688	-0.02793589973449707	0.010542499542236327	1.0005399780273438	0.002805030107498169	-0.014367600440979005	0.8677050170898437	-0.007521240234375	-0.012119500160217286	0.8874619750976562	-0.017016799926757812	-0.009058050155639649	0.9080809936523437	-0.026727500915527343	-0.00170644998550415	0.9422639770507812	0.013872400283813476	0.023977899551391603	0.8557630004882812	0.00098871898651123	0.0233794002532959	0.876051025390625	-0.013759699821472168	0.022338199615478515	0.9004970092773438	-0.026873199462890626	0.021666799545288086	0.9370989990234375	0.027535699844360353	0.041472599029541014	0.8758820190429687	0.011685799598693848	0.04306579971313477	0.8914420166015625	-0.0053258099555969236	0.043820400238037106	0.9106599731445313	-0.020152599334716796	0.04111759948730469	0.9409990234375	0.038568599700927735	0.07247799682617187	0.9209240112304687	0.02226740074157715	0.06941210174560547	0.9296439819335938	0.007341390132904053	0.06552549743652344	0.9378790283203124	-0.01285830020904541	0.057487400054931644	0.9521519775390626	-0.04920690155029297	0.03759420013427734	1.0120800170898439
54	1.8	-0.017577800750732422	-0.05672909927368164	0.9461539916992188	-0.016688800811767577	-0.03554399871826172	0.9619569702148437	-0.02525230026245117	-0.019620800018310548	0.9845750122070313	-0.02801530075073242	0.010910699844360352	1.000510009765625	0.00378393006324768	-0.013265600204467773	0.8681829833984375	-0.007407040119171143	-0.01112720012664795	0.887458984375	-0.017562599182128907	-0.008248820304870605	0.9076640014648437	-0.027072999954223635	-0.0013059600591659541	0.9421510009765625	0.013923600196838378	0.024659500122070313	0.8559539794921875	0.000796437978744506	0.02401860046386719	0.876073974609375	-0.014131099700927734	0.022838300704956054	0.9004130249023438	-0.027375699996948243	0.022016199111938476	0.9368939819335937	0.027131200790405274	0.04212229919433594	0.8760239868164063	0.011194600105285644	0.043635501861572265	0.89131201171875	-0.005909319877624512	0.044353599548339846	0.9103770141601563	-0.020801300048828124	0.04156760025024414	0.9410170288085937	0.03778739929199219	0.07307569885253906	0.9207670288085937	0.021503400802612305	0.06994210052490234	0.9293909912109375	0.0065050401687622075	0.06599549865722656	0.9376179809570313	-0.013571499824523926	0.0579114990234375	0.9519940185546875	-0.049506000518798825	0.03777410125732422	1.0118900146484375
55	1.8333333333333333	-0.01774959945678711	-0.05622880172729492	0.9458690185546875	-0.016937000274658203	-0.03508570098876953	0.9617639770507812	-0.02562929916381836	-0.019231800079345704	0.9844940185546875	-0.028303699493408205	0.011268099784851075	1.0003599853515626	0.004886209964752197	-0.01269950008392334	0.869031005859375	-0.007329020023345947	-0.010449999809265137	0.8875969848632812	-0.018202800750732422	-0.0076216402053833005	0.9073519897460938	-0.027670900344848634	-0.0008316190242767331	0.9420349731445312	0.013961400032043457	0.025146299362182618	0.856072998046875	0.0006692929863929741	0.024535900115966798	0.8760859985351562	-0.014401599884033204	0.023379199981689452	0.9001710205078125	-0.027816499710083008	0.022490800857543944	0.9367659912109375	0.027082000732421875	0.04244919967651367	0.8761669921875	0.011022199630737304	0.04401810073852539	0.8913610229492187	-0.0062244200706481935	0.0447869987487793	0.9102940063476562	-0.02127239990234375	0.041990398406982425	0.94102099609375	0.03754859924316406	0.073214599609375	0.9207230224609375	0.021201400756835936	0.07017369842529297	0.9293480224609375	0.006204780101776123	0.06629949951171875	0.9375819702148438	-0.013902700424194336	0.05829629898071289	0.9519340209960937	-0.049581199645996096	0.03803879928588867	1.0118499755859376
